<svg width="72" height="16" viewBox="0 0 72 16" fill="none" xmlns="http://www.w3.org/2000/svg">
<path d="M19.7949 5.49299C19.7949 4.95733 19.6093 4.6895 19.2382 4.6895C19.1611 4.68686 19.084 4.69415 19.0089 4.71116C18.9118 4.73083 18.8131 4.74175 18.7141 4.74378C18.669 4.74447 18.6243 4.73563 18.5828 4.71785C18.5414 4.70007 18.5043 4.67375 18.4739 4.64063C18.4414 4.60662 18.4161 4.56657 18.3992 4.52279C18.3823 4.479 18.3743 4.43235 18.3756 4.38548C18.3756 4.13209 18.528 4.00539 18.8327 4.00539C18.8399 4.00539 18.8943 4.009 18.9957 4.01622C20.0836 4.08859 20.5914 4.12478 20.519 4.12478H20.627L23.2491 4.04871C23.2999 4.04871 23.4885 4.03783 23.8148 4.01609C23.9308 4.00887 24.0359 4.00526 24.1302 4.00526C24.5074 4.00526 24.696 4.17175 24.696 4.50474C24.696 4.56267 24.6856 4.74726 24.6648 5.05849C24.6492 5.29014 24.6414 5.50369 24.6414 5.69915C24.6384 5.87671 24.6444 6.05431 24.6596 6.23125C24.6798 6.38614 24.6919 6.54197 24.696 6.69811C24.696 6.97316 24.565 7.11069 24.3029 7.11069C24.0409 7.11069 23.9099 6.91796 23.9099 6.5325V5.96527C23.9099 5.35441 23.783 4.9944 23.5292 4.88522C23.3406 4.80528 22.8546 4.7653 22.0713 4.7653C21.7663 4.75522 21.4609 4.7663 21.1574 4.79845C20.8454 4.87937 20.6895 5.09996 20.6895 5.46024V6.5461C20.6895 6.83568 20.754 7.00217 20.8832 7.04558C20.9681 7.06339 21.0549 7.07066 21.1416 7.06724H21.5831C22.0353 7.06724 22.2614 6.91162 22.2614 6.60038C22.2594 6.48771 22.2503 6.37527 22.2341 6.26374C22.2169 6.14119 22.2078 6.01767 22.2067 5.89395C22.2067 5.60437 22.3359 5.45958 22.5943 5.45958C22.8527 5.45958 22.9819 5.6152 22.9819 5.92644C22.9819 5.98437 22.9584 6.20889 22.9113 6.59998C22.8737 6.89173 22.8536 7.18543 22.8509 7.47955C22.8509 7.6243 22.8654 7.8813 22.8945 8.25056C22.9018 8.30849 22.92 8.43519 22.9491 8.63065C22.9682 8.75652 22.9792 8.88347 22.9819 9.01074C22.9895 9.06384 22.9846 9.11799 22.9676 9.16888C22.9505 9.21977 22.9218 9.26601 22.8837 9.30395C22.8455 9.34188 22.799 9.37046 22.7479 9.38742C22.6967 9.40438 22.6423 9.40925 22.5889 9.40166C22.3341 9.40166 22.2067 9.24965 22.2067 8.94563C22.2095 8.8294 22.2186 8.7134 22.2341 8.59816C22.2496 8.48292 22.2587 8.36692 22.2614 8.25069C22.2614 7.93945 22.054 7.78383 21.6392 7.78383H21.1479C20.9369 7.78383 20.8077 7.82002 20.7604 7.89239C20.6992 8.04005 20.6749 8.20022 20.6895 8.35925V9.03279C20.6895 9.14857 20.6931 9.30419 20.7003 9.49965C20.7076 9.73852 20.7112 9.89779 20.7112 9.97747C20.7185 10.2671 20.7767 10.448 20.8858 10.5204C20.9655 10.5711 21.1547 10.5965 21.4535 10.5965H22.939C23.3684 10.5965 23.6632 10.5331 23.8233 10.4064C23.9835 10.2797 24.0635 10.0427 24.0635 9.69524C24.0635 9.58668 24.0581 9.42561 24.0472 9.21201C24.0363 8.99841 24.0308 8.83729 24.0307 8.72864C24.0307 8.40288 24.16 8.23999 24.4185 8.23999C24.6913 8.23999 24.8277 8.40649 24.8277 8.73947C24.8277 8.86978 24.8222 9.06885 24.8114 9.33668C24.8005 9.60451 24.795 9.80358 24.795 9.93389C24.795 10.0352 24.8005 10.1854 24.8114 10.3845C24.8222 10.5836 24.8277 10.7338 24.8277 10.8351C24.8277 11.1753 24.6603 11.3454 24.3255 11.3454C24.2458 11.3454 24.1185 11.3371 23.9434 11.3206C23.856 11.3121 23.6959 11.3079 23.463 11.3079C23.514 11.3079 23.2301 11.2996 22.6114 11.2831C21.9928 11.2665 21.4579 11.2582 21.0067 11.2581C20.3225 11.2581 19.6529 11.2835 18.998 11.3342C18.9649 11.3346 18.932 11.3382 18.8997 11.345H18.8345C18.5289 11.345 18.376 11.2147 18.376 10.9541C18.376 10.7225 18.4888 10.6066 18.7145 10.6066C18.7509 10.6066 18.8491 10.6139 19.0093 10.6283C19.0839 10.6493 19.161 10.6602 19.2386 10.6609C19.6097 10.6609 19.7953 10.3895 19.7953 9.84659L19.7949 5.49299ZM28.9657 9.79231V9.09737C28.9729 8.80058 29.1039 8.65218 29.3587 8.65218C29.6134 8.65218 29.7406 8.81854 29.7403 9.15126C29.7403 9.94032 29.6391 10.4906 29.4366 10.8021C29.1622 11.222 28.7104 11.4319 28.0813 11.4319C27.503 11.4319 27.091 11.2473 26.8453 10.8782C26.6646 10.6103 26.5743 10.1543 26.5743 9.50995V6.904C26.5743 6.75195 26.5035 6.67592 26.3618 6.67592H26.0046C25.9502 6.67765 25.8959 6.66844 25.8451 6.64886C25.7943 6.62928 25.7479 6.59972 25.7088 6.56195C25.671 6.52636 25.641 6.48332 25.6208 6.43557C25.6006 6.38781 25.5907 6.3364 25.5916 6.28461C25.5917 6.23409 25.6019 6.1841 25.6216 6.13752C25.6413 6.09094 25.67 6.04869 25.7062 6.01321C25.7382 5.97662 25.7775 5.94713 25.8217 5.92665C25.8659 5.90617 25.9139 5.89517 25.9627 5.89435H26.3885C26.5124 5.89435 26.5744 5.82558 26.5744 5.68806V4.56958C26.5744 4.29453 26.7164 4.157 27.0002 4.157C27.2623 4.157 27.3933 4.29453 27.3933 4.56958V5.73177C27.3933 5.84033 27.4588 5.89461 27.5898 5.89461H28.7798C29.0563 5.89461 29.1946 6.02131 29.1946 6.2747C29.1946 6.54253 29.0454 6.67645 28.747 6.67645H27.546C27.4441 6.67645 27.3931 6.75248 27.3931 6.90453V9.57572C27.3931 10.3358 27.6478 10.7159 28.157 10.7159C28.6736 10.7154 28.9432 10.4076 28.9657 9.79231ZM32.0006 4.28881L31.9564 6.40426C32.1888 6.17097 32.459 5.97827 32.7557 5.83426C33.0264 5.72361 33.3171 5.67001 33.6096 5.67683C34.2373 5.67683 34.741 5.8542 35.1207 6.20893C35.3102 6.38873 35.4591 6.60667 35.5573 6.8482C35.6554 7.08974 35.7007 7.34932 35.69 7.60964V9.42305C35.69 9.85016 35.6937 10.0854 35.7009 10.1288C35.7301 10.4908 35.8247 10.6717 35.9848 10.6717C36.0713 10.6653 36.1561 10.6448 36.2359 10.611C36.2934 10.5995 36.352 10.5944 36.4106 10.5957C36.6799 10.5957 36.8146 10.7189 36.8146 10.9655C36.8146 11.212 36.6399 11.3353 36.2906 11.3353C36.1518 11.332 36.0134 11.3211 35.8758 11.3026C35.6296 11.2706 35.3817 11.2525 35.1334 11.2484C34.9875 11.246 34.8416 11.2532 34.6967 11.27C34.3911 11.3134 34.2018 11.3351 34.1291 11.3351C34.0094 11.3392 33.8926 11.2985 33.8015 11.2211C33.7594 11.186 33.7258 11.1419 33.7032 11.0921C33.6805 11.0423 33.6693 10.988 33.6705 10.9334C33.6702 10.8875 33.6804 10.8422 33.7002 10.8009C33.7201 10.7595 33.7491 10.7231 33.785 10.6945C33.859 10.6302 33.9543 10.5954 34.0525 10.5967C34.1494 10.5998 34.2452 10.6181 34.3363 10.651C34.3961 10.6718 34.4589 10.6828 34.5222 10.6836C34.7406 10.6836 34.8534 10.4484 34.8607 9.97787C34.8607 9.89097 34.868 9.72086 34.8825 9.46756V8.41432C34.8825 7.67598 34.8094 7.18011 34.6633 6.92672C34.4514 6.55033 34.0788 6.36213 33.5455 6.36213C32.9684 6.36213 32.5483 6.55759 32.2853 6.94851C32.1027 7.21634 32.0077 7.64706 32.0005 8.24065V9.02249C31.9948 9.09635 31.9801 9.16925 31.9568 9.23961V9.4459C31.9568 9.85848 31.9606 10.0973 31.9681 10.1625C32.0055 10.5172 32.114 10.6946 32.2935 10.6946C32.3795 10.6898 32.4643 10.6734 32.5458 10.6457C32.6238 10.619 32.7049 10.6025 32.7872 10.5969C33.0267 10.5969 33.1465 10.7125 33.1465 10.9437C33.1465 11.2047 32.9853 11.3353 32.6629 11.3353C32.5602 11.3353 32.4063 11.3244 32.2011 11.3026C31.9638 11.2761 31.7254 11.2616 31.4866 11.2592C31.3621 11.2592 31.1899 11.2701 30.9701 11.2918C30.6769 11.3208 30.49 11.3353 30.4094 11.3353C30.1089 11.3353 29.9587 11.201 29.9587 10.9324C29.9587 10.7087 30.0995 10.5969 30.3812 10.5969C30.4529 10.5929 30.5247 10.6033 30.5923 10.6272C30.6795 10.6515 30.7688 10.6668 30.8591 10.6729C30.9777 10.6729 31.0574 10.5625 31.0981 10.3417C31.1529 9.89289 31.1768 9.44088 31.1698 8.98882V7.04518C31.1698 5.95932 31.148 5.27345 31.1043 4.98757C31.0607 4.70169 30.9589 4.55871 30.7989 4.55862C30.7216 4.56215 30.6448 4.57307 30.5696 4.59124C30.4909 4.61 30.4104 4.62093 30.3294 4.62386C30.0816 4.62386 29.9577 4.50804 29.9577 4.27639C29.9579 4.22586 29.9699 4.17607 29.9926 4.13088C30.0153 4.08569 30.0482 4.04632 30.0887 4.01582C30.1776 3.94286 30.29 3.90431 30.4053 3.90726C30.4416 3.90726 30.5656 3.91814 30.777 3.93988C30.9258 3.95486 31.0752 3.96209 31.2246 3.96154C31.3161 3.95907 31.4073 3.94998 31.4975 3.93434C31.5805 3.91961 31.6644 3.91052 31.7486 3.90713C31.916 3.90713 31.9997 4.02709 31.9997 4.26701L32.0006 4.28881ZM42.208 8.0897C42.2224 8.25932 42.2039 8.43013 42.1533 8.59275C42.1168 8.65438 42.011 8.68519 41.8358 8.68519H38.3545C38.2901 8.67795 38.225 8.69132 38.1687 8.72336C38.1527 8.73993 38.1405 8.75972 38.133 8.7814C38.1254 8.80307 38.1226 8.82612 38.1248 8.84896C38.1084 9.34955 38.2845 9.83754 38.6175 10.2133C38.769 10.3883 38.9574 10.528 39.1693 10.6223C39.3812 10.7166 39.6114 10.7634 39.8435 10.7592C40.1567 10.7614 40.4634 10.6705 40.7244 10.4983C40.9728 10.3477 41.1576 10.1123 41.2444 9.83603L41.343 9.52118C41.3614 9.44168 41.4082 9.3715 41.4745 9.3236C41.5409 9.27571 41.6225 9.25333 41.7042 9.26061C41.9743 9.26061 42.1093 9.39814 42.1093 9.67319C42.1093 10.1437 41.8692 10.5619 41.3888 10.9278C40.9208 11.2891 40.3436 11.4822 39.7511 11.4756C38.9874 11.4756 38.3798 11.2203 37.9283 10.7097C37.4769 10.199 37.2511 9.51312 37.2511 8.65204C37.2511 7.76887 37.4913 7.05223 37.9716 6.50212C38.2023 6.23329 38.4909 6.01952 38.816 5.87666C39.141 5.7338 39.4942 5.66551 39.8494 5.67683C40.1636 5.66705 40.4764 5.72262 40.7678 5.83999C41.0592 5.95736 41.3227 6.13394 41.5415 6.35843C41.7632 6.58809 41.9364 6.85962 42.0508 7.15699C42.1652 7.45435 42.2185 7.7715 42.2076 8.0897H42.208ZM38.2446 7.81606C38.2446 7.9174 38.3249 7.96807 38.4856 7.96807H41.104C41.2574 7.96807 41.3341 7.9174 41.3341 7.81606C41.3351 7.62837 41.2966 7.44256 41.2212 7.27054C41.1457 7.09851 41.0349 6.94406 40.896 6.8171C40.7616 6.68153 40.6011 6.57418 40.4242 6.50143C40.2473 6.42867 40.0575 6.39199 39.8661 6.39356C39.4514 6.39573 39.0526 6.55268 38.7486 6.83335C38.4126 7.12653 38.2446 7.45411 38.2446 7.81606ZM44.6639 6.17116V6.46963C44.8289 6.22078 45.0546 6.01758 45.3199 5.87901C45.5853 5.74044 45.8816 5.67102 46.1813 5.67723C46.6343 5.65725 47.0777 5.81077 47.4204 6.10618C47.5755 6.24437 47.6984 6.41461 47.7804 6.60498C47.8625 6.79535 47.9017 7.00126 47.8953 7.20828C47.9081 7.48695 47.8232 7.76136 47.6551 7.98471C47.5808 8.08068 47.4847 8.15778 47.3746 8.20968C47.2645 8.26159 47.1437 8.28682 47.0219 8.28331C46.8659 8.2874 46.7139 8.23316 46.5961 8.1313C46.5411 8.08656 46.4968 8.03012 46.4666 7.96612C46.4364 7.90213 46.421 7.83221 46.4215 7.76151C46.4216 7.70387 46.4333 7.64683 46.4558 7.59371C46.4783 7.54058 46.5112 7.49244 46.5525 7.45208C46.5911 7.40945 46.6381 7.37534 46.6907 7.35195C46.7434 7.32856 46.8003 7.31642 46.8579 7.31632C46.9063 7.32199 46.9539 7.33293 46.9999 7.34894C47.04 7.27541 47.0624 7.19363 47.0653 7.11003C47.0649 7.00564 47.0394 6.90288 46.9908 6.81032C46.9423 6.71775 46.8723 6.63807 46.7865 6.57793C46.5872 6.42871 46.3425 6.35207 46.0933 6.36081C45.5256 6.36081 45.1471 6.61416 44.9578 7.12086C44.8414 7.43209 44.7832 7.90261 44.7832 8.53239V9.24899C44.7832 9.73403 44.7869 10.0055 44.7943 10.0633C44.8309 10.4759 44.9447 10.6822 45.1358 10.6822C45.236 10.6816 45.3358 10.6691 45.4331 10.6451C45.5017 10.628 45.5721 10.6187 45.6429 10.6172C45.8779 10.6172 45.9954 10.7313 45.9954 10.9594C45.9954 11.209 45.8462 11.3338 45.5478 11.3338H45.5041C45.338 11.3297 45.1722 11.317 45.0074 11.2958C44.8426 11.2745 44.6768 11.2618 44.5106 11.2577C44.2195 11.2577 43.9902 11.265 43.8228 11.2794L43.212 11.3337C42.9136 11.3337 42.7644 11.207 42.7644 10.9536C42.7644 10.7292 42.904 10.6169 43.1831 10.6169C43.2384 10.6156 43.2938 10.6192 43.3484 10.6278L43.5137 10.6604C43.5644 10.6719 43.616 10.6791 43.6679 10.682C43.8516 10.682 43.9507 10.5156 43.9653 10.1826V9.62881L43.9325 7.16391C43.9107 6.7368 43.8015 6.52325 43.6049 6.52325C43.5243 6.52567 43.4439 6.53477 43.3647 6.55046C43.2856 6.56614 43.2052 6.57524 43.1245 6.57766C42.8844 6.57766 42.7643 6.4636 42.7643 6.23548C42.7643 5.98587 42.9208 5.86107 43.2337 5.86107C43.3433 5.86396 43.4527 5.87304 43.5613 5.88827C43.6698 5.9035 43.7792 5.91259 43.8888 5.91548C43.9839 5.91216 44.0787 5.90307 44.1727 5.88827C44.2401 5.86891 44.31 5.85974 44.3801 5.86107C44.5693 5.86142 44.6639 5.96478 44.6639 6.17116ZM50.6723 5.67696C51.1102 5.66166 51.5402 5.79578 51.891 6.05705V6.0136C51.891 5.74577 52.0074 5.61186 52.2403 5.61186C52.4805 5.61186 52.6006 5.72768 52.6006 5.95932C52.6006 6.00273 52.5945 6.11133 52.5824 6.28513C52.5582 6.42868 52.5461 6.57396 52.546 6.7195C52.546 6.8064 52.5551 6.9331 52.5733 7.09959C52.5916 7.26609 52.6007 7.39278 52.6007 7.47968C52.6007 7.75473 52.4824 7.89226 52.2459 7.89226C52.1983 7.89822 52.1501 7.89338 52.1047 7.8781C52.0593 7.86283 52.0179 7.83752 51.9838 7.80408C51.9497 7.77064 51.9236 7.72993 51.9075 7.68502C51.8915 7.64011 51.8859 7.59217 51.8911 7.54479V7.18649C51.8838 6.96929 51.7577 6.7829 51.5128 6.62732C51.2547 6.468 50.9556 6.38687 50.6519 6.39383C50.3497 6.38329 50.0527 6.47306 49.8075 6.64898C49.7031 6.71926 49.6175 6.81388 49.5582 6.92461C49.499 7.03533 49.4679 7.15879 49.4676 7.28422C49.4676 7.74752 49.7888 8.02261 50.4313 8.10951L51.0665 8.19641C52.3077 8.3629 52.9283 8.87326 52.9283 9.72747C52.935 9.97021 52.8843 10.2111 52.7803 10.4308C52.6763 10.6505 52.5219 10.8429 52.3295 10.9924C51.9303 11.3146 51.4077 11.4756 50.7618 11.4756C50.1964 11.4875 49.6438 11.3075 49.195 10.9653V11.1719C49.195 11.4325 49.0711 11.5628 48.8232 11.5628C48.5539 11.5628 48.4193 11.4144 48.4193 11.1176C48.4508 10.9306 48.4726 10.7422 48.4848 10.553C48.4992 10.4524 48.5065 10.3509 48.5065 10.2493C48.5074 10.0854 48.4928 9.92178 48.4628 9.76062C48.4377 9.6427 48.4231 9.5228 48.4192 9.40232C48.4192 9.14893 48.5356 9.02223 48.7685 9.02223C48.9214 9.02223 49.0178 9.05841 49.0578 9.13079C49.115 9.31693 49.139 9.51157 49.1289 9.70594C49.1361 10.0172 49.2999 10.2705 49.6202 10.466C49.9925 10.6746 50.4158 10.7761 50.8428 10.7592C51.1601 10.7716 51.4721 10.6758 51.7271 10.4878C51.8362 10.4099 51.9248 10.3071 51.9856 10.1881C52.0464 10.069 52.0775 9.93719 52.0765 9.80367C52.0765 9.31141 51.6834 9.02527 50.8974 8.94523C50.1477 8.86599 49.5764 8.7194 49.1834 8.50545C48.7905 8.2915 48.594 7.91687 48.5939 7.38156C48.5873 7.14571 48.636 6.91157 48.736 6.69766C48.8361 6.48376 48.9849 6.29595 49.1706 6.14911C49.5551 5.83434 50.0557 5.67696 50.6723 5.67696ZM56.9236 7.7075C56.9236 7.41792 57.1056 7.25143 57.4695 7.20802C57.4547 7.08817 57.4143 6.97285 57.351 6.86984C57.2877 6.76682 57.2029 6.6785 57.1023 6.61081C56.8629 6.45722 56.5815 6.38135 56.2969 6.39369C56.0606 6.38775 55.8265 6.43899 55.6146 6.54303C55.4026 6.64706 55.2193 6.80076 55.0804 6.9909C54.7735 7.38904 54.62 7.91731 54.62 8.57571C54.62 9.25621 54.7642 9.79007 55.0525 10.1773C55.1884 10.3652 55.3691 10.5166 55.5783 10.618C55.7875 10.7194 56.0188 10.7677 56.2513 10.7584C56.5532 10.7646 56.8483 10.6691 57.0885 10.4873C57.3307 10.2988 57.5022 10.035 57.5757 9.73803C57.6487 9.48464 57.6925 9.33985 57.707 9.30366C57.7383 9.23772 57.788 9.18214 57.8502 9.14363C57.9124 9.10511 57.9845 9.08529 58.0578 9.08655C58.1144 9.08457 58.1707 9.09409 58.2234 9.11453C58.2762 9.13497 58.3241 9.16589 58.3644 9.20541C58.4043 9.24518 58.4355 9.29264 58.4562 9.34489C58.4769 9.39713 58.4867 9.45303 58.4848 9.50916C58.4732 9.73637 58.4137 9.9586 58.3101 10.1614C58.2082 10.393 58.068 10.6059 57.8953 10.7913C57.6821 11.0172 57.4228 11.1951 57.1348 11.3132C56.8468 11.4312 56.5368 11.4866 56.2255 11.4756C55.8863 11.4876 55.5488 11.4236 55.238 11.2882C54.9271 11.1529 54.6508 10.9497 54.4296 10.6938C53.9747 10.1726 53.7472 9.48851 53.7472 8.64161C53.7472 7.74355 53.9818 7.02511 54.451 6.48627C54.9201 5.94744 55.5442 5.6778 56.3232 5.67736C56.8482 5.65842 57.3629 5.82587 57.7751 6.14977C57.9587 6.29125 58.1066 6.47336 58.2071 6.68164C58.3075 6.88992 58.3578 7.11863 58.3538 7.3496C58.3632 7.59016 58.2836 7.8258 58.1301 8.01191C58.0606 8.09572 57.973 8.16273 57.8737 8.20787C57.7744 8.25301 57.6661 8.27511 57.557 8.27248C57.3905 8.27813 57.2283 8.21981 57.1039 8.10964C57.0462 8.05975 57.0002 7.9979 56.969 7.92843C56.9379 7.85896 56.9224 7.78355 56.9236 7.7075ZM64.0088 11.4318C63.412 11.4318 63.0446 11.1748 62.9067 10.6608C62.5352 11.204 61.9528 11.4756 61.1594 11.4756C60.5699 11.4756 60.0987 11.3309 59.7457 11.0413C59.573 10.9016 59.4352 10.7239 59.3433 10.5222C59.2514 10.3205 59.2079 10.1004 59.2162 9.87908C59.2031 9.6074 59.2693 9.33775 59.4068 9.10267C59.5444 8.8676 59.7474 8.67715 59.9914 8.55431C60.1502 8.46131 60.3209 8.39022 60.499 8.34301C60.6406 8.31043 60.9263 8.26878 61.356 8.21807C61.9673 8.15292 62.3656 8.06245 62.551 7.94667C62.7363 7.83089 62.8293 7.61734 62.8298 7.30601C62.8359 7.17336 62.811 7.0411 62.757 6.91965C62.703 6.79819 62.6215 6.69085 62.5187 6.60606C62.2684 6.42249 61.9613 6.33219 61.6509 6.3509C61.3251 6.35037 61.0063 6.44472 60.7339 6.6223C60.6247 6.69467 60.5702 6.7707 60.5702 6.85038C60.5702 6.87935 60.6029 6.91554 60.6684 6.95894C60.7226 7.00324 60.7649 7.0602 60.7916 7.12472C60.8182 7.18925 60.8284 7.25933 60.8212 7.32873C60.823 7.39635 60.8097 7.46352 60.7823 7.52544C60.7549 7.58737 60.7142 7.64254 60.663 7.68703C60.5531 7.78275 60.4106 7.83323 60.2646 7.82821C60.1761 7.83032 60.0882 7.81403 60.0064 7.78037C59.9246 7.74671 59.8508 7.69643 59.7897 7.63275C59.7273 7.56989 59.6782 7.4952 59.6454 7.41312C59.6126 7.33104 59.5967 7.24324 59.5986 7.15493C59.5986 6.74992 59.8006 6.40245 60.2045 6.11252C60.6345 5.81499 61.1492 5.66272 61.6728 5.67815C62.9974 5.67815 63.6597 6.31018 63.6597 7.57424V9.76299C63.6531 9.9691 63.6604 10.1754 63.6815 10.3805C63.7251 10.6333 63.849 10.7597 64.0533 10.7597C64.308 10.7597 64.4354 10.5296 64.4354 10.0695V9.54125C64.4354 9.31119 64.5464 9.19616 64.7685 9.19616C65.005 9.19616 65.1232 9.36987 65.1232 9.7173V10.3908C65.1081 11.0849 64.7366 11.4319 64.0088 11.4319V11.4318ZM62.7861 9.27104V8.50017C62.6413 8.63612 62.4689 8.73969 62.2805 8.80392C61.969 8.88462 61.6504 8.93552 61.3291 8.95593C60.5027 9.03517 60.0895 9.33919 60.0895 9.86799C60.0843 9.99244 60.1088 10.1163 60.161 10.2296C60.2132 10.3428 60.2915 10.4421 60.3897 10.5195C60.6251 10.6897 60.9123 10.7741 61.203 10.7584C61.6907 10.7584 62.0746 10.6263 62.3547 10.3622C62.4983 10.2197 62.6107 10.0492 62.6849 9.86141C62.7592 9.67365 62.7936 9.47266 62.7861 9.27104ZM67.142 6.19295V6.50225C67.3461 6.23633 67.611 6.02272 67.9148 5.87918C68.2187 5.73563 68.5525 5.66631 68.8887 5.67696C69.2799 5.67649 69.6642 5.77955 70.0022 5.97557C70.3162 6.13697 70.5662 6.39905 70.7118 6.71937C70.8244 7.02881 70.8762 7.35684 70.8646 7.68571V9.74886C70.8646 10.0601 70.8682 10.2447 70.8755 10.3026C70.9119 10.5491 71.0101 10.6724 71.1703 10.6724C71.2564 10.6703 71.3422 10.6612 71.4268 10.6452C71.5006 10.6307 71.5754 10.6216 71.6505 10.618C71.6959 10.6174 71.741 10.6258 71.7832 10.6425C71.8253 10.6593 71.8637 10.6842 71.8962 10.7157C71.9295 10.746 71.956 10.7829 71.9738 10.8241C71.9917 10.8653 72.0006 10.9098 71.9999 10.9546C72.0005 11.0069 71.989 11.0585 71.9663 11.1056C71.9436 11.1527 71.9102 11.1939 71.8688 11.226C71.7799 11.299 71.6675 11.3376 71.5523 11.3346C71.3843 11.3291 71.2167 11.3145 71.0502 11.2907C70.833 11.2628 70.6143 11.2483 70.3952 11.2473C70.2385 11.2457 70.0818 11.2529 69.9259 11.269C69.562 11.3124 69.3691 11.3341 69.3472 11.3341C69.0561 11.3341 68.9105 11.2074 68.9105 10.954C68.9105 10.7296 69.0367 10.6173 69.289 10.6173C69.3563 10.6182 69.4234 10.6254 69.4893 10.639C69.5769 10.6601 69.666 10.6749 69.7558 10.6832C69.9339 10.6832 70.0304 10.4842 70.0452 10.086V8.04414C70.0547 7.77884 70.0364 7.51328 69.9908 7.25173C69.936 6.99249 69.7845 6.76354 69.5667 6.61108C69.3279 6.44473 69.0426 6.35736 68.7512 6.36134C68.1711 6.36134 67.7542 6.56763 67.5005 6.9802C67.3265 7.26256 67.2394 7.74395 67.2394 8.42436V9.86852C67.2277 10.0877 67.2498 10.3074 67.3049 10.52C67.3196 10.5715 67.3512 10.6167 67.3948 10.6482C67.4384 10.6797 67.4913 10.6957 67.5451 10.6937C67.6264 10.6902 67.707 10.6775 67.7853 10.6556C67.8672 10.6332 67.9515 10.6204 68.0364 10.6176C68.262 10.6176 68.3749 10.7388 68.3749 10.9813C68.3749 11.2166 68.2293 11.3342 67.9381 11.3342C67.8799 11.3342 67.6907 11.3125 67.3705 11.2691C67.1931 11.2463 67.0144 11.2354 66.8355 11.2365C66.6313 11.24 66.4274 11.2545 66.2247 11.2799C65.9045 11.3161 65.7225 11.3342 65.6789 11.3342C65.3732 11.3342 65.2204 11.2109 65.2204 10.9644C65.214 10.9167 65.2188 10.8682 65.2346 10.8227C65.2503 10.7771 65.2764 10.7359 65.311 10.7022C65.3455 10.6685 65.3874 10.6432 65.4335 10.6284C65.4795 10.6136 65.5284 10.6097 65.5762 10.6169C65.6456 10.6217 65.7145 10.6326 65.7819 10.6496C65.8787 10.6709 65.9775 10.6819 66.0766 10.6822C66.299 10.6822 66.4141 10.4722 66.4218 10.0524V7.15374C66.4222 6.98105 66.3902 6.8098 66.3272 6.64885C66.3034 6.60437 66.267 6.56781 66.2225 6.54369C66.1781 6.51956 66.1275 6.50892 66.077 6.51308C66.0001 6.51647 65.9238 6.5274 65.8491 6.5457C65.7744 6.56401 65.6981 6.57494 65.6213 6.57832C65.3544 6.57832 65.2209 6.4607 65.2209 6.22544C65.2209 5.98296 65.3847 5.86173 65.7122 5.86173C65.7489 5.86099 65.7855 5.86462 65.8214 5.87256L66.2253 5.91601C66.3277 5.91725 66.4301 5.90813 66.5307 5.8888C66.7199 5.87066 66.8182 5.86159 66.8254 5.86159C67.0365 5.86159 67.142 5.97205 67.142 6.19295Z" fill="white"/>
<path d="M3.34909 7.60484C3.3491 7.51537 3.36689 7.42678 3.40142 7.34416C3.43595 7.26155 3.48655 7.18653 3.55031 7.12342C3.61407 7.06031 3.68974 7.01035 3.77297 6.9764C3.85619 6.94246 3.94534 6.9252 4.0353 6.92561L5.17296 6.92931C5.35435 6.92931 5.52832 7.00098 5.65658 7.12856C5.78485 7.25614 5.85691 7.42917 5.85691 7.60959V11.8886C5.98504 11.8508 6.14902 11.8105 6.32947 11.7683C6.45449 11.739 6.56591 11.6686 6.64566 11.5685C6.72541 11.4683 6.76882 11.3444 6.76885 11.2166V5.90922C6.76885 5.72879 6.8409 5.55574 6.96916 5.42815C7.09742 5.30055 7.27139 5.22885 7.4528 5.22881H8.59391C8.77532 5.22885 8.94928 5.30055 9.07754 5.42815C9.20581 5.55574 9.27786 5.72879 9.27786 5.90922V10.8353C9.27786 10.8353 9.56334 10.7204 9.84125 10.6037C9.94452 10.5602 10.0326 10.4875 10.0946 10.3946C10.1566 10.3017 10.1897 10.1926 10.1898 10.0811V4.20846C10.1898 4.02806 10.2618 3.85505 10.3901 3.72748C10.5183 3.59991 10.6922 3.52822 10.8736 3.52818H12.0135C12.1948 3.52836 12.3686 3.60011 12.4967 3.72767C12.6249 3.85522 12.6968 4.02815 12.6968 4.20846V9.04437C13.6851 8.332 14.6867 7.47514 15.4815 6.44489C15.5968 6.29534 15.6731 6.11973 15.7036 5.93371C15.7341 5.7477 15.7178 5.55708 15.6562 5.37884C15.2883 4.32602 14.7035 3.36118 13.9391 2.54607C13.1748 1.73096 12.2478 1.08353 11.2175 0.645206C10.1871 0.206882 9.07612 -0.0126821 7.95557 0.000565707C6.83502 0.0138135 5.7296 0.25958 4.71002 0.72214C3.69045 1.1847 2.77919 1.85386 2.03454 2.68681C1.2899 3.51976 0.728284 4.49815 0.385625 5.55938C0.0429648 6.6206 -0.0731884 7.74129 0.044597 8.84973C0.162382 9.95817 0.511513 11.0299 1.06965 11.9965C1.16689 12.1632 1.30995 12.2989 1.48202 12.3875C1.6541 12.4762 1.84804 12.5142 2.04107 12.497C2.2567 12.4781 2.52518 12.4514 2.84439 12.4142C2.98331 12.3985 3.11157 12.3325 3.20474 12.2288C3.29791 12.1251 3.34947 11.9909 3.34962 11.8519V7.60484" fill="white"/>
<path d="M3.32471 14.4672C4.52626 15.3366 5.94621 15.8584 7.42746 15.975C8.9087 16.0916 10.3935 15.7983 11.7176 15.1276C13.0416 14.457 14.1534 13.4351 14.9297 12.175C15.7061 10.9149 16.1169 9.46569 16.1166 7.9878C16.1166 7.8029 16.108 7.62091 16.0956 7.43945C13.1528 11.8049 7.7192 13.8458 3.32471 14.4672Z" fill="#BFCFDA"/>
</svg>
