<svg width="49" height="48" viewBox="0 0 49 48" fill="none" xmlns="http://www.w3.org/2000/svg">
<path fill-rule="evenodd" clip-rule="evenodd" d="M24.5 40C33.3366 40 40.5 32.8366 40.5 24C40.5 15.1634 33.3366 8 24.5 8C15.6634 8 8.5 15.1634 8.5 24C8.5 32.8366 15.6634 40 24.5 40ZM24.5 44C35.5457 44 44.5 35.0457 44.5 24C44.5 12.9543 35.5457 4 24.5 4C13.4543 4 4.5 12.9543 4.5 24C4.5 35.0457 13.4543 44 24.5 44Z" fill="black"/>
<path fill-rule="evenodd" clip-rule="evenodd" d="M24.5 20C25.6046 20 26.5 20.8954 26.5 22V32C26.5 33.1046 25.6046 34 24.5 34C23.3954 34 22.5 33.1046 22.5 32V22C22.5 20.8954 23.3954 20 24.5 20Z" fill="black"/>
<path d="M26.5 16C26.5 17.1046 25.6046 18 24.5 18C23.3954 18 22.5 17.1046 22.5 16C22.5 14.8954 23.3954 14 24.5 14C25.6046 14 26.5 14.8954 26.5 16Z" fill="black"/>
</svg>
