<svg width="145" height="32" viewBox="0 0 145 32" fill="none" xmlns="http://www.w3.org/2000/svg">
<g clip-path="url(#clip0_55_658)">
<path fill-rule="evenodd" clip-rule="evenodd" d="M57.772 31.2508C59.0721 31.7637 60.4606 32.0188 61.8594 32.0018C63.2394 32.0154 64.6088 31.7602 65.8901 31.2508C67.0942 30.7684 68.1886 30.0507 69.1083 29.1402C70.0276 28.2247 70.7471 27.1308 71.2219 25.9268C71.7249 24.6465 71.9767 23.2823 71.9636 21.9079C71.9793 20.5287 71.7275 19.1595 71.2219 17.8749C70.7451 16.6766 70.0257 15.5883 69.1083 14.6774C68.1896 13.7657 67.0949 13.0479 65.8901 12.5668C64.5996 12.0551 63.2205 11.7999 61.8311 11.8158C60.4416 11.7996 59.0625 12.0548 57.772 12.5668C56.5669 13.0483 55.4717 13.7661 54.552 14.6774C53.6351 15.5907 52.9126 16.6782 52.4278 17.8749C51.9133 19.1573 51.6565 20.5274 51.6719 21.9079C51.6565 23.2884 51.9133 24.6585 52.4278 25.9409C52.913 27.1379 53.6354 28.2259 54.552 29.1402C55.4727 30.0503 56.5676 30.768 57.772 31.2508ZM63.9447 27.1334C63.2767 27.416 62.557 27.5579 61.8311 27.5502C61.1075 27.5603 60.3896 27.4214 59.7228 27.1422C59.0852 26.8692 58.5092 26.4721 58.0287 25.9743C57.5363 25.4608 57.1593 24.8493 56.9223 24.1803C56.6653 23.452 56.5377 22.6849 56.5452 21.9132C56.5369 21.146 56.6646 20.3834 56.9223 19.6601C57.1635 18.9931 57.54 18.3825 58.0287 17.8661C58.5062 17.3613 59.0827 16.9591 59.7228 16.6842C60.3906 16.4013 61.1104 16.2593 61.8364 16.2674C62.5623 16.2596 63.282 16.4015 63.95 16.6842C64.5864 16.9572 65.1581 17.3599 65.6281 17.8661C66.1106 18.3871 66.4864 18.9964 66.7345 19.6601C66.9998 20.3786 67.1312 21.1391 67.1221 21.9044C67.1305 22.6729 66.9974 23.4365 66.7292 24.1574C66.4811 24.8211 66.1053 25.4305 65.6228 25.9514C65.1528 26.4577 64.5811 26.8603 63.9447 27.1334ZM30.4597 18.0667C29.9941 16.9088 29.2884 15.8613 28.3886 14.9922C27.4774 14.1207 26.4026 13.4358 25.2252 12.9766C23.9406 12.4815 22.5723 12.2361 21.1945 12.2538H12.7436V12.2608H0L2.07289 17.0096H6.37269V19.6091H4.01125V26.9663H6.37269V27.0859H6.4134V31.7222H16.0751V31.6993H21.1981C22.5759 31.7178 23.9444 31.4723 25.2288 30.9764C26.4061 30.5172 27.481 29.8323 28.3921 28.9608C29.2945 28.0884 30.0005 27.0357 30.4632 25.8723C30.9572 24.6291 31.2043 23.3025 31.1908 21.966C31.2028 20.6315 30.9545 19.3073 30.4597 18.0667ZM12.7436 26.9663V26.9505H21.0635C21.7016 26.9637 22.3354 26.8438 22.924 26.5987C23.4641 26.3657 23.9472 26.0196 24.3401 25.5839C24.746 25.1229 25.0596 24.5892 25.2642 24.0115C25.4945 23.3596 25.6083 22.6727 25.6005 21.9818C25.6085 21.2903 25.4946 20.6029 25.2642 19.9504C25.0589 19.3704 24.74 18.8366 24.326 18.3797C23.9298 17.9477 23.4475 17.6021 22.9098 17.3649C22.3273 17.1151 21.6979 16.9916 21.0635 17.0026H16.0751V17.0096H12.0373V26.9663H12.7436ZM31.5696 31.7221L39.3231 12.2537H43.3556L51.0524 31.7221H46.2374L44.8427 27.9952H37.6687L36.2695 31.7256L31.5696 31.7221ZM42.543 21.8499L43.5106 24.4353H39.004L39.9639 21.8762C40.1126 21.4066 40.2719 20.9546 40.44 20.5272C40.6082 20.0998 40.7622 19.6619 40.9021 19.2204C40.958 19.0439 41.0139 18.8685 41.0698 18.6931C41.1392 18.4755 41.2086 18.2579 41.278 18.0381C41.3978 18.426 41.5213 18.8195 41.6473 19.2204C41.796 19.6935 41.9465 20.1526 42.0952 20.5976C42.2439 21.0426 42.3943 21.4594 42.543 21.8499Z" fill="url(#paint0_linear_55_658)"/>
<path d="M81.6218 32.0018C80.714 32.0052 79.8115 31.8639 78.9488 31.5832C78.1003 31.3076 77.3048 30.8914 76.5962 30.352C75.8602 29.7863 75.2222 29.1048 74.7074 28.3346L75.7146 27.3057C76.5407 28.4935 77.4553 29.3418 78.4584 29.8507C79.4546 30.3582 80.5589 30.6207 81.6784 30.6158C82.5901 30.6308 83.4947 30.4552 84.3337 30.1005C85.0676 29.7962 85.7092 29.3077 86.1959 28.6829C86.6474 28.096 86.8885 27.376 86.881 26.6374C86.8933 26.1783 86.8026 25.7223 86.6155 25.3024C86.4346 24.9293 86.1771 24.598 85.8596 24.3298C85.5028 24.0329 85.1075 23.7851 84.6842 23.5928C84.1846 23.3641 83.6701 23.169 83.1441 23.0089C82.5741 22.833 81.9628 22.6519 81.3102 22.4654C80.4145 22.2075 79.6167 21.939 78.9169 21.6599C78.2743 21.4139 77.6709 21.0768 77.1255 20.6591C76.6469 20.2895 76.263 19.8128 76.0049 19.2679C75.7365 18.6445 75.6079 17.9705 75.6279 17.2927C75.6194 16.5715 75.7774 15.8579 76.0899 15.2068C76.4005 14.5736 76.8442 14.014 77.391 13.5658C77.9683 13.0929 78.6284 12.7297 79.3382 12.4947C80.1097 12.2395 80.9184 12.1129 81.7315 12.12C82.6357 12.1004 83.5359 12.2464 84.3868 12.5509C85.1236 12.827 85.802 13.2374 86.3871 13.761C86.9861 14.3039 87.5131 14.9204 87.9555 15.5955L86.9199 16.598C86.534 15.9958 86.0731 15.4444 85.5481 14.957C85.0545 14.4995 84.4802 14.1364 83.854 13.8859C83.1803 13.6267 82.4627 13.4989 81.7404 13.5095C80.9163 13.4952 80.0991 13.6615 79.3471 13.9967C78.6823 14.2933 78.1078 14.7586 77.6813 15.3457C77.27 15.9223 77.0542 16.6142 77.0653 17.3209C77.0554 17.7917 77.156 18.2584 77.3591 18.684C77.5751 19.0949 77.8932 19.4443 78.2832 19.6988C78.7789 20.0244 79.3143 20.2863 79.8763 20.478C80.6312 20.7438 81.3993 20.971 82.1776 21.1586C83.0256 21.3604 83.8585 21.6208 84.67 21.9378C85.3623 22.2045 86.0168 22.5592 86.6172 22.9931C87.1485 23.3782 87.5799 23.8834 87.8759 24.467C88.1823 25.1191 88.3309 25.8335 88.3095 26.5529C88.3223 27.5518 88.0189 28.5294 87.4421 29.3477C86.8372 30.1951 86.016 30.8671 85.063 31.2947C83.9832 31.782 82.8075 32.0236 81.6218 32.0018Z" fill="#0043AA"/>
<path d="M100.265 31.9173C98.9159 31.94 97.5854 31.599 96.4153 30.9306C95.2989 30.2861 94.3836 29.3475 93.7706 28.2185C93.1194 27.0039 92.7916 25.6441 92.8183 24.2682V12.2537H94.2185V24.0184C94.1968 25.187 94.4662 26.3429 95.0027 27.383C95.4948 28.334 96.2399 29.1328 97.157 29.6924C98.0941 30.2541 99.1712 30.543 100.265 30.5261C101.395 30.5478 102.509 30.2594 103.484 29.6924C104.416 29.1373 105.176 28.3384 105.682 27.383C106.227 26.3454 106.501 25.1885 106.479 24.0184V12.2537H107.851V24.2682C107.877 25.6473 107.54 27.0093 106.872 28.2185C106.24 29.3475 105.311 30.2849 104.185 30.9306C102.991 31.6027 101.637 31.9435 100.265 31.9173Z" fill="#0043AA"/>
<path d="M113.898 31.7221V12.2537H120.952C122.035 12.2342 123.103 12.5032 124.046 13.0328C124.933 13.534 125.671 14.2583 126.186 15.1329C126.716 16.0402 126.987 17.0739 126.971 18.1229C126.994 19.1454 126.737 20.1549 126.229 21.0443C125.742 21.8716 125.035 22.55 124.186 23.0053C123.278 23.4859 122.261 23.7281 121.232 23.7089H115.298V31.7186L113.898 31.7221ZM115.298 22.3212H121.4C122.142 22.3352 122.875 22.1531 123.524 21.7935C124.134 21.4467 124.634 20.9358 124.965 20.3196C125.317 19.6606 125.496 18.9235 125.484 18.1774C125.497 17.3611 125.295 16.5556 124.896 15.8417C124.511 15.1635 123.944 14.605 123.258 14.2288C122.526 13.8302 121.701 13.6283 120.865 13.6431H115.294L115.298 22.3212ZM126.096 31.7221L121.225 23.3501L122.4 22.6272L127.71 31.7221H126.096Z" fill="#0043AA"/>
<path d="M135.648 31.722L128.286 12.2537H129.854L134.921 25.7157C135.145 26.2908 135.337 26.7991 135.494 27.2441C135.652 27.6891 135.807 28.1235 135.956 28.5245C136.105 28.9255 136.255 29.3582 136.404 29.8032C136.553 30.2482 136.721 30.7688 136.908 31.3615H136.153C136.413 30.5648 136.643 29.8735 136.838 29.2896C137.032 28.7057 137.234 28.1305 137.44 27.5642C137.645 26.9978 137.907 26.333 138.224 25.5486L143.487 12.2537H144.998L137.271 31.722H135.648Z" fill="#0043AA"/>
<path opacity="0.2" d="M61.8169 1.73914e-05C58.9047 -0.00363472 56.0207 0.567943 53.3328 1.6815C50.6449 2.79506 48.2065 4.42839 46.1595 6.48655L47.2854 7.60692L47.3544 7.53482C49.2493 5.64195 51.5032 4.14126 53.9857 3.11963C56.4682 2.09799 59.1299 1.57569 61.8169 1.58296C64.5036 1.57573 67.1651 2.09805 69.6473 3.11969C72.1295 4.14133 74.3831 5.642 76.2776 7.53482L76.3856 7.64561L77.5132 6.527C75.4649 4.45696 73.0218 2.81353 70.3267 1.69282C67.6316 0.572105 64.7385 -0.00339203 61.8169 1.73914e-05Z" fill="#0043AA"/>
<path d="M61.8169 5.0126C59.567 5.00954 57.339 5.45167 55.2629 6.3132C53.1868 7.17473 51.3041 8.43842 49.7247 10.0305L49.7619 10.0657C50.3066 10.6004 51.0228 10.9284 51.7858 10.9927C52.5487 11.057 53.3102 10.8534 53.9378 10.4175C56.2574 8.83774 59.0047 7.99391 61.8169 7.99731C64.6398 7.99361 67.3969 8.84457 69.7208 10.4368C70.351 10.8744 71.1155 11.0788 71.8816 11.0146C72.6477 10.9503 73.367 10.6214 73.9144 10.0851L73.9409 10.0569C72.3599 8.45638 70.473 7.18573 68.3911 6.31952C66.3091 5.4533 64.074 5.00897 61.8169 5.0126Z" fill="#0043AA"/>
</g>
<defs>
<linearGradient id="paint0_linear_55_658" x1="-2.59687" y1="21.9044" x2="66.908" y2="21.9044" gradientUnits="userSpaceOnUse">
<stop stop-color="#0097FF"/>
<stop offset="0.15" stop-color="#008EF6"/>
<stop offset="0.4" stop-color="#0074DF"/>
<stop offset="0.72" stop-color="#004BBA"/>
<stop offset="0.99" stop-color="#002294"/>
</linearGradient>
<clipPath id="clip0_55_658">
<rect width="145" height="32" fill="white"/>
</clipPath>
</defs>
</svg>
